<?xml version="1.0" encoding="utf-8"?>
<svg width="11px" height="11px" viewBox="0 0 11 11" version="1.1" xmlns:xlink="http://www.w3.org/1999/xlink" xmlns="http://www.w3.org/2000/svg">
  <desc>Created with Lunacy</desc>
  <g id="days-checked-copy-7">
    <path d="M5.499 0L5.501 0Q5.63599 0 5.77082 0.00662379Q5.90565 0.0132476 6.04 0.0264792Q6.17434 0.0397108 6.30787 0.0595184Q6.4414 0.0793259 6.5738 0.105662Q6.7062 0.131998 6.83715 0.164798Q6.96809 0.197599 7.09728 0.236785Q7.22646 0.275971 7.35356 0.321449Q7.48066 0.366927 7.60538 0.418586Q7.73009 0.470246 7.85212 0.527963Q7.97416 0.58568 8.09321 0.649315Q8.21226 0.71295 8.32805 0.78235Q8.44384 0.85175 8.55608 0.926749Q8.66832 1.00175 8.77675 1.08216Q8.88518 1.16258 8.98953 1.24822Q9.09388 1.33385 9.1939 1.42451Q9.29393 1.51517 9.38938 1.61062Q9.48483 1.70607 9.57549 1.8061Q9.66615 1.90612 9.75178 2.01047Q9.83742 2.11482 9.91784 2.22325Q9.99825 2.33168 10.0733 2.44392Q10.1482 2.55616 10.2176 2.67195Q10.287 2.78774 10.3507 2.90679Q10.4143 3.02584 10.472 3.14787Q10.5298 3.26991 10.5814 3.39462Q10.6331 3.51934 10.6785 3.64644Q10.724 3.77354 10.7632 3.90272Q10.8024 4.0319 10.8352 4.16285Q10.868 4.2938 10.8943 4.4262Q10.9207 4.5586 10.9405 4.69213Q10.9603 4.82566 10.9735 4.96Q10.9868 5.09435 10.9934 5.22918Q11 5.36401 11 5.499L11 5.501Q11 5.63599 10.9934 5.77082Q10.9868 5.90565 10.9735 6.04Q10.9603 6.17434 10.9405 6.30787Q10.9207 6.4414 10.8943 6.5738Q10.868 6.7062 10.8352 6.83715Q10.8024 6.96809 10.7632 7.09728Q10.724 7.22646 10.6785 7.35356Q10.6331 7.48066 10.5814 7.60538Q10.5298 7.73009 10.472 7.85212Q10.4143 7.97416 10.3507 8.09321Q10.287 8.21226 10.2176 8.32805Q10.1482 8.44384 10.0732 8.55608Q9.99825 8.66832 9.91784 8.77675Q9.83742 8.88518 9.75178 8.98953Q9.66615 9.09388 9.57549 9.1939Q9.48483 9.29393 9.38938 9.38938Q9.29393 9.48483 9.1939 9.57549Q9.09388 9.66615 8.98953 9.75178Q8.88518 9.83742 8.77675 9.91784Q8.66832 9.99825 8.55608 10.0733Q8.44384 10.1482 8.32805 10.2176Q8.21226 10.287 8.09321 10.3507Q7.97416 10.4143 7.85212 10.472Q7.73009 10.5298 7.60537 10.5814Q7.48066 10.6331 7.35356 10.6785Q7.22645 10.724 7.09727 10.7632Q6.96809 10.8024 6.83715 10.8352Q6.7062 10.868 6.5738 10.8943Q6.4414 10.9207 6.30787 10.9405Q6.17434 10.9603 6.04 10.9735Q5.90565 10.9868 5.77082 10.9934Q5.63599 11 5.501 11L5.499 11Q5.36401 11 5.22918 10.9934Q5.09435 10.9868 4.96 10.9735Q4.82566 10.9603 4.69213 10.9405Q4.5586 10.9207 4.4262 10.8943Q4.2938 10.868 4.16285 10.8352Q4.0319 10.8024 3.90272 10.7632Q3.77354 10.724 3.64644 10.6785Q3.51934 10.6331 3.39462 10.5814Q3.26991 10.5298 3.14787 10.472Q3.02584 10.4143 2.90679 10.3507Q2.78774 10.287 2.67195 10.2176Q2.55616 10.1482 2.44392 10.0732Q2.33168 9.99825 2.22325 9.91784Q2.11482 9.83742 2.01047 9.75178Q1.90612 9.66615 1.8061 9.57549Q1.70607 9.48483 1.61062 9.38938Q1.51517 9.29393 1.42451 9.1939Q1.33385 9.09388 1.24822 8.98953Q1.16258 8.88518 1.08216 8.77675Q1.00175 8.66832 0.926749 8.55608Q0.85175 8.44384 0.78235 8.32805Q0.71295 8.21226 0.649315 8.09321Q0.58568 7.97416 0.527963 7.85212Q0.470246 7.73009 0.418586 7.60537Q0.366927 7.48066 0.321449 7.35356Q0.275971 7.22645 0.236785 7.09727Q0.197599 6.96809 0.164798 6.83715Q0.131998 6.7062 0.105662 6.5738Q0.0793259 6.4414 0.0595184 6.30787Q0.0397108 6.17434 0.0264792 6.04Q0.0132476 5.90565 0.00662379 5.77082Q0 5.63599 0 5.501L0 5.499Q0 5.36401 0.00662379 5.22918Q0.0132476 5.09435 0.0264792 4.96Q0.0397108 4.82566 0.0595184 4.69213Q0.0793259 4.5586 0.105662 4.4262Q0.131998 4.2938 0.164798 4.16285Q0.197599 4.0319 0.236785 3.90272Q0.275971 3.77354 0.321449 3.64644Q0.366927 3.51934 0.418586 3.39462Q0.470246 3.26991 0.527963 3.14787Q0.58568 3.02584 0.649315 2.90679Q0.71295 2.78774 0.78235 2.67195Q0.85175 2.55616 0.926749 2.44392Q1.00175 2.33168 1.08216 2.22325Q1.16258 2.11482 1.24822 2.01047Q1.33385 1.90612 1.42451 1.8061Q1.51517 1.70607 1.61062 1.61062Q1.70607 1.51517 1.8061 1.42451Q1.90612 1.33385 2.01047 1.24822Q2.11482 1.16258 2.22325 1.08216Q2.33168 1.00175 2.44392 0.926749Q2.55616 0.85175 2.67195 0.78235Q2.78774 0.71295 2.90679 0.649315Q3.02584 0.58568 3.14787 0.527963Q3.26991 0.470246 3.39462 0.418586Q3.51934 0.366927 3.64644 0.321449Q3.77354 0.275971 3.90272 0.236785Q4.0319 0.197599 4.16285 0.164798Q4.2938 0.131998 4.4262 0.105662Q4.5586 0.0793259 4.69213 0.0595184Q4.82566 0.0397108 4.96 0.0264792Q5.09435 0.0132476 5.22918 0.00662379Q5.36401 0 5.499 0Z" id="Rectangle-5" fill="#EE334B" stroke="none" />
    <path d="M6.36328 0.434295L5.94921 0L2.22669 3.90435L0.413613 2.00271L0 2.43653L1.81308 4.33817L2.22715 4.77246L2.64076 4.33864L6.36328 0.434295Z" transform="translate(2.38623 3.181641)" id="Combined-Shape" fill="#FFFFFF" fill-rule="evenodd" stroke="none" />
  </g>
</svg>