<?xml version="1.0" encoding="utf-8"?>
<svg width="16px" height="16px" viewBox="0 0 16 16" version="1.1" xmlns:xlink="http://www.w3.org/1999/xlink" xmlns="http://www.w3.org/2000/svg">
  <desc>Created with Lunacy</desc>
  <g id="close-icon">
    <path d="M0.998756 6.10352e-05L19.0008 6.10352e-05Q19.0991 6.10352e-05 19.1956 0.0192565Q19.2922 0.038452 19.3831 0.0761054Q19.474 0.113759 19.5558 0.168423Q19.6376 0.223087 19.7072 0.292661Q19.7767 0.362236 19.8314 0.444046Q19.8861 0.525857 19.9237 0.61676Q19.9614 0.707663 19.9806 0.804166Q19.9998 0.900668 19.9998 0.999061L19.9998 1.00106Q19.9998 1.09945 19.9806 1.19596Q19.9614 1.29246 19.9237 1.38336Q19.8861 1.47426 19.8314 1.55608Q19.7767 1.63789 19.7072 1.70746Q19.6376 1.77703 19.5558 1.8317Q19.474 1.88636 19.3831 1.92402Q19.2922 1.96167 19.1956 1.98087Q19.0991 2.00006 19.0008 2.00006L0.998756 2.00006Q0.900363 2.00006 0.803861 1.98087Q0.707358 1.96167 0.616455 1.92402Q0.525552 1.88636 0.443741 1.8317Q0.36193 1.77703 0.292356 1.70746Q0.222782 1.63789 0.168118 1.55608Q0.113454 1.47426 0.0758002 1.38336Q0.0381469 1.29246 0.0189514 1.19596Q-0.000244141 1.09945 -0.000244141 1.00106L-0.000244141 0.999061Q-0.000244141 0.900668 0.0189514 0.804166Q0.0381469 0.707663 0.0758002 0.61676Q0.113454 0.525857 0.168118 0.444046Q0.222782 0.362236 0.292356 0.292661Q0.36193 0.223087 0.443741 0.168423Q0.525552 0.113759 0.616455 0.0761054Q0.707358 0.038452 0.80386 0.0192565Q0.900363 6.10352e-05 0.998756 6.10352e-05Z" transform="matrix(0.7071068 0.7071068 -0.7071068 0.7071068 1.414307 0)" id="Rectangle-4" fill="#D1D1D6" stroke="none" />
    <path d="M0.999 0L19.001 0Q19.0994 0 19.1959 0.0191955Q19.2924 0.038391 19.3833 0.0760443Q19.4742 0.113698 19.556 0.168362Q19.6378 0.223026 19.7074 0.2926Q19.777 0.362175 19.8316 0.443985Q19.8863 0.525796 19.924 0.616699Q19.9616 0.707602 19.9808 0.804105Q20 0.900607 20 0.999L20 1.001Q20 1.09939 19.9808 1.1959Q19.9616 1.2924 19.924 1.3833Q19.8863 1.4742 19.8316 1.55601Q19.777 1.63783 19.7074 1.7074Q19.6378 1.77697 19.556 1.83164Q19.4742 1.8863 19.3833 1.92396Q19.2924 1.96161 19.1959 1.9808Q19.0994 2 19.001 2L0.999 2Q0.900607 2 0.804105 1.9808Q0.707602 1.96161 0.616699 1.92396Q0.525796 1.8863 0.443985 1.83164Q0.362175 1.77697 0.2926 1.7074Q0.223026 1.63783 0.168362 1.55601Q0.113698 1.4742 0.0760443 1.3833Q0.038391 1.2924 0.0191955 1.1959Q0 1.09939 0 1.001L0 0.999Q0 0.900607 0.0191955 0.804105Q0.038391 0.707602 0.0760443 0.616699Q0.113698 0.525796 0.168362 0.443985Q0.223026 0.362175 0.2926 0.2926Q0.362175 0.223026 0.443985 0.168362Q0.525796 0.113698 0.616699 0.0760443Q0.707602 0.038391 0.804105 0.0191955Q0.900607 0 0.999 0Z" transform="matrix(-0.7071067 0.7071068 0.7071068 0.7071067 14.14258 0.0001831055)" id="Rectangle-4" fill="#D1D1D6" stroke="none" />
  </g>
</svg>